<svg xmlns="http://www.w3.org/2000/svg" xmlns:xlink="http://www.w3.org/1999/xlink" viewBox="0,0,256,256" width="100px" height="100px" fill-rule="nonzero"><defs><linearGradient x1="37.672" y1="3.68" x2="37.672" y2="44.487" gradientUnits="userSpaceOnUse" id="color-1"><stop offset="0" stop-color="#339af0"></stop><stop offset="1" stop-color="#339af0"></stop></linearGradient><linearGradient x1="4.598" y1="38.164" x2="37.92" y2="4.842" gradientUnits="userSpaceOnUse" id="color-2"><stop offset="0.019" stop-color="#5c7cfa"></stop><stop offset="0.32" stop-color="#339af0"></stop><stop offset="0.364" stop-color="#339af0"></stop><stop offset="0.38" stop-color="#339af0"></stop><stop offset="0.48" stop-color="#339af0"></stop><stop offset="0.485" stop-color="#339af0"></stop><stop offset="0.517" stop-color="#339af0"></stop><stop offset="0.556" stop-color="#339af0"></stop><stop offset="0.61" stop-color="#339af0"></stop><stop offset="0.762" stop-color="#339af0"></stop><stop offset="0.806" stop-color="#339af0"></stop><stop offset="0.851" stop-color="#339af0"></stop><stop offset="0.897" stop-color="#5c7cfa"></stop><stop offset="0.943" stop-color="#5c7cfa"></stop><stop offset="0.963" stop-color="#339af0"></stop></linearGradient><linearGradient x1="4.405" y1="25.413" x2="35.886" y2="30.112" gradientUnits="userSpaceOnUse" id="color-3"><stop offset="0.002" stop-color="#339af0"></stop><stop offset="0.003" stop-color="#339af0"></stop><stop offset="0.337" stop-color="#339af0"></stop><stop offset="0.737" stop-color="#339af0"></stop><stop offset="0.848" stop-color="#339af0"></stop><stop offset="0.89" stop-color="#339af0"></stop><stop offset="0.938" stop-color="#339af0"></stop><stop offset="0.988" stop-color="#339af0"></stop><stop offset="1" stop-color="#339af0"></stop></linearGradient><linearGradient x1="6.5" y1="34.157" x2="6.5" y2="14.799" gradientUnits="userSpaceOnUse" id="color-4"><stop offset="0" stop-color="#339af0"></stop><stop offset="1" stop-color="#339af0"></stop></linearGradient></defs><g fill="none" fill-rule="nonzero" stroke="none" stroke-width="1" stroke-linecap="butt" stroke-linejoin="miter" stroke-miterlimit="10" stroke-dasharray="" stroke-dashoffset="0" font-family="none" font-weight="none" font-size="none" text-anchor="none" style="mix-blend-mode: normal"><g transform="scale(5.33333,5.33333)"><path d="M44,10.781v26.403c0,1.147 -0.653,2.193 -1.684,2.696c-2.348,1.144 -6.392,3.113 -7.05,3.413c-0.936,0.428 -1.524,0.707 -2.259,0.707c-0.735,0 -1.221,-0.479 -1.559,-0.836c-0.338,-0.358 2.552,-10.164 2.552,-10.164v-26.77c0,0 -3.182,-0.666 -2.58,-1.337c0.603,-0.671 1.107,-0.899 1.736,-0.899c0.725,0 1.311,0.323 1.971,0.641c0.468,0.225 4.732,2.271 7.174,3.443c1.041,0.499 1.699,1.549 1.699,2.703z" fill="url(#color-1)"></path><path d="M4,32c0,1.928 0.261,2.214 2.134,3.028c1.456,0.633 2.036,0.972 2.425,0.972c0.469,0 0.91,-0.323 1.327,-0.664c0.417,-0.341 24.114,-19.811 24.114,-19.811v-9.979c0,-1.198 -1.674,-1.676 -2.467,-0.778c0,0 -24.791,27.531 -25.533,28.244c-0.742,0.713 -0.233,-1.893 -2,-1.012z" fill="url(#color-2)"></path><path d="M4.62,13.681c0.317,-0.152 2.934,-1.322 3.256,-1.463c0.378,-0.165 0.514,-0.218 0.793,-0.218c0.308,0 0.518,0.117 1.001,0.514c0.675,0.554 24.33,19.969 24.33,19.969v9.759c0,1.675 -1.744,1.847 -2.728,0.741c-0.698,-0.784 -24.883,-27.549 -24.883,-27.549c0,0 -2.389,1.207 -2.389,0.153c0,-1.421 0.276,-1.74 0.62,-1.906z" fill="url(#color-3)"></path><path d="M9,18.323v11.412c0,0 -2.73,2.999 -3.34,3.659c-0.542,0.587 -1.66,0.403 -1.66,-1.246v-16.72c0,-1.251 1.131,-1.378 2.098,-0.323c0.175,0.191 2.902,3.218 2.902,3.218z" fill="url(#color-4)"></path></g></g></svg>